<?xml version="1.0" encoding="UTF-8" standalone="no"?>
<svg
   xmlns:dc="http://purl.org/dc/elements/1.1/"
   xmlns:cc="http://creativecommons.org/ns#"
   xmlns:rdf="http://www.w3.org/1999/02/22-rdf-syntax-ns#"
   xmlns:svg="http://www.w3.org/2000/svg"
   xmlns="http://www.w3.org/2000/svg"
   xmlns:sodipodi="http://sodipodi.sourceforge.net/DTD/sodipodi-0.dtd"
   xmlns:inkscape="http://www.inkscape.org/namespaces/inkscape"
   inkscape:version="1.0rc1 (09960d6f05, 2020-04-09)"
   sodipodi:docname="icon.svg"
   xml:space="preserve"
   viewBox="0 0 310.7175 375.40851"
   height="375.40851"
   width="310.7175"
   y="0px"
   x="0px"
   id="Layer_1"
   version="1.1"><metadata
   id="metadata73"><rdf:RDF><cc:Work
       rdf:about=""><dc:format>image/svg+xml</dc:format><dc:type
         rdf:resource="http://purl.org/dc/dcmitype/StillImage" /><dc:title></dc:title></cc:Work></rdf:RDF></metadata><defs
   id="defs71" /><sodipodi:namedview
   inkscape:current-layer="Layer_1"
   inkscape:window-maximized="0"
   inkscape:window-y="0"
   inkscape:window-x="0"
   inkscape:cy="156.9085"
   inkscape:cx="155.35875"
   inkscape:zoom="0.46183953"
   fit-margin-bottom="0"
   fit-margin-right="0"
   fit-margin-left="0"
   fit-margin-top="0"
   showgrid="false"
   id="namedview69"
   inkscape:window-height="930"
   inkscape:window-width="1537"
   inkscape:pageshadow="2"
   inkscape:pageopacity="0"
   guidetolerance="10"
   gridtolerance="10"
   objecttolerance="10"
   borderopacity="1"
   bordercolor="#666666"
   pagecolor="#ffffff" />



<path
   inkscape:connector-curvature="0"
   id="path8"
   d="m 310.60975,198.8465 c 0,-51.195 -24.787,-96.596 -63.009,-124.874 10.107,-10.107 20.215,-20.215 30.322,-30.322 7.785,-7.786 -4.278,-19.848 -12.063,-12.064 -10.94,10.941 -21.881,21.882 -32.821,32.822 -22.845,-13.226 -49.371,-20.801 -77.667,-20.801 -28.303,0 -54.834,7.578 -77.683,20.81 -10.944,-10.943 -21.887,-21.887 -32.831,-32.831 -7.785,-7.784 -19.848,4.278 -12.063,12.064 8.164,8.164 21.269,21.269 30.332,30.332 -38.214,28.278 -62.995,73.674 -62.995,124.863 0,59.733 33.742,111.576 83.201,137.535 l -17.522,39.028 h 11.941 l 22.093,-31.561 c 17.243,6.607 35.959,10.238 55.527,10.238 19.567,0 38.284,-3.631 55.526,-10.238 l 22.093,31.561 h 11.941 l -17.522,-39.027 c 49.458,-25.959 83.2,-77.802 83.2,-137.535 z"
   style="fill:#2d3e50" />



<path
   inkscape:connector-curvature="0"
   id="path16"
   d="m 293.60475,99.7415 c 22.817,-22.818 22.817,-59.812 0,-82.628 -22.817,-22.818 -59.812,-22.818 -82.629,0 -0.101,0.1 -0.194,0.207 -0.294,0.309 l 82.614,82.613 c 0.101,-0.1 0.208,-0.192 0.309,-0.294 z"
   style="fill:#f3c40f" />
<path
   inkscape:connector-curvature="0"
   id="path18"
   d="m 298.42975,33.9995 c 5.05,5.051 8.978,10.799 11.793,16.931 -1.592,-12.365 -7.121,-24.32 -16.619,-33.817 -22.817,-22.818 -59.812,-22.818 -82.629,0 -0.101,0.1 -0.194,0.207 -0.294,0.309 l 11.253,11.252 c 22.895,-17.313 55.623,-15.546 76.496,5.325 z"
   style="fill:#ffd224" />
<path
   inkscape:connector-curvature="0"
   id="path20"
   d="m 17.11275,99.7415 c -22.817,-22.818 -22.817,-59.812 0,-82.628 22.818,-22.818 59.812,-22.818 82.629,0 0.101,0.1 0.194,0.207 0.294,0.309 l -82.614,82.613 c -0.101,-0.1 -0.208,-0.192 -0.309,-0.294 z"
   style="fill:#f3c40f" />
<path
   inkscape:connector-curvature="0"
   id="path22"
   d="m 34.17275,17.1135 c 9.233,-9.234 20.788,-14.728 32.785,-16.489 -17.651,-2.59 -36.26,2.904 -49.844,16.489 -22.817,22.816 -22.817,59.811 0,82.628 0.101,0.101 0.208,0.194 0.309,0.294 l 9.344,-9.344 c -15.061,-22.689 -12.594,-53.579 7.406,-73.578 z"
   style="fill:#ffd224" />
<path
   inkscape:connector-curvature="0"
   id="path24"
   d="m 8.66175,207.3765 c 0,-85.736 69.502,-155.239 155.239,-155.239 40.699,0 77.731,15.669 105.416,41.293 -28.356,-30.636 -68.908,-49.822 -113.945,-49.822 -85.736,0 -155.239,69.502 -155.239,155.238 0,45.039 19.187,85.589 49.823,113.946 -25.625,-27.685 -41.294,-64.718 -41.294,-105.416 z"
   style="fill:#496582" />
<path
   inkscape:connector-curvature="0"
   id="path26"
   d="m 155.37175,324.2695 c -69.158,0 -125.423,-56.265 -125.423,-125.423 0,-69.158 56.265,-125.422 125.423,-125.422 69.158,0 125.422,56.264 125.422,125.422 0,69.158 -56.265,125.423 -125.422,125.423 z"
   style="fill:#ffffff" />
<path
   inkscape:connector-curvature="0"
   id="path28"
   d="m 155.37175,324.2695 c -69.158,0 -125.423,-56.265 -125.423,-125.423 0,-69.158 56.265,-125.422 125.423,-125.422 69.158,0 125.422,56.264 125.422,125.422 0,69.158 -56.265,125.423 -125.422,125.423 z"
   style="fill:#ffc600;fill-opacity:1" />
<path
   inkscape:connector-curvature="0"
   id="path30"
   d="m 255.18575,274.6995 -34.563,-79.264 -17.778,7.148 -0.987,-3.175 h -38.999 l -10,-81 v 0 l 1,94.878 -5.105,-8.47 -47.895,33.266 v 6.7 l -21.576,8.75 38.662,64.992 c 11.861,3.729 24.413,5.745 37.49,5.745 40.674,0 76.82,-19.468 99.751,-49.57 z"
   style="opacity:0.2;fill:#5d5d5d" />
<path
   inkscape:connector-curvature="0"
   id="path32"
   d="m 153.00675,195.9595 c -24.005,18.338 -48.011,36.677 -72.016,55.017 -3.877,2.961 -0.061,9.634 3.875,6.627 24.005,-18.338 48.011,-36.677 72.017,-55.016 3.876,-2.962 0.06,-9.636 -3.876,-6.628 z"
   style="fill:#e24c3f" />
<path
   inkscape:connector-curvature="0"
   id="path34"
   d="m 33.35975,209.0825 c 0,-69.158 56.265,-125.423 125.423,-125.423 53.474,0 99.23,33.642 117.238,80.869 -14.963,-52.529 -63.386,-91.104 -120.65,-91.104 -69.158,0 -125.423,56.264 -125.423,125.422 0,15.686 2.902,30.702 8.184,44.554 -3.106,-10.911 -4.772,-22.424 -4.772,-34.318 z"
   style="fill:#8b8b8b;fill-opacity:1" />
<path
   inkscape:connector-curvature="0"
   id="path36"
   d="m 213.85875,191.4085 c -13,0 -25.417,0 -38.488,0 -2.251,-6 -7.512,-9.959 -12.512,-11.979 0,-19.527 0,-50.021 0,-68.021 0,-11 -17,-11 -17,0 0,23 0,46.195 0,69.291 -7,3.557 -11.134,10.546 -11.134,18.592 0,11.649 9.443,21.092 21.092,21.092 8.378,0 15.594,-4.975 18.998,-11.975 12.823,0 29.045,0 39.045,0 10.999,0 10.999,-17 -0.001,-17 z"
   style="fill:#2d3e50" />
<g
   transform="translate(-100.14125,-98.5915)"
   id="g38">
</g>
<g
   transform="translate(-100.14125,-98.5915)"
   id="g40">
</g>
<g
   transform="translate(-100.14125,-98.5915)"
   id="g42">
</g>
<g
   transform="translate(-100.14125,-98.5915)"
   id="g44">
</g>
<g
   transform="translate(-100.14125,-98.5915)"
   id="g46">
</g>
<g
   transform="translate(-100.14125,-98.5915)"
   id="g48">
</g>
<g
   transform="translate(-100.14125,-98.5915)"
   id="g50">
</g>
<g
   transform="translate(-100.14125,-98.5915)"
   id="g52">
</g>
<g
   transform="translate(-100.14125,-98.5915)"
   id="g54">
</g>
<g
   transform="translate(-100.14125,-98.5915)"
   id="g56">
</g>
<g
   transform="translate(-100.14125,-98.5915)"
   id="g58">
</g>
<g
   transform="translate(-100.14125,-98.5915)"
   id="g60">
</g>
<g
   transform="translate(-100.14125,-98.5915)"
   id="g62">
</g>
<g
   transform="translate(-100.14125,-98.5915)"
   id="g64">
</g>
<g
   transform="translate(-100.14125,-98.5915)"
   id="g66">
</g>
</svg>
